HIERARCHY
ROOT Hips
{
	OFFSET 0.00000 0.00000 0.00000
	CHANNELS 6 Xposition Yposition Zposition Zrotation Yrotation Xrotation 
	JOINT LHipJoint
	{
		OFFSET 0 0 0
		CHANNELS 3 Zrotation Yrotation Xrotation
		JOINT LeftUpLeg
		{
			OFFSET 3.13874 -1.57224 1.49786
			CHANNELS 3 Zrotation Yrotation Xrotation
			JOINT LeftLeg
			{
				OFFSET 2.10955 -5.79594 0.00000
				CHANNELS 3 Zrotation Yrotation Xrotation
				JOINT LeftFoot
				{
					OFFSET 2.41843 -6.64458 0.00000
					CHANNELS 3 Zrotation Yrotation Xrotation
					JOINT LeftToeBase
					{
						OFFSET 0.04713 -0.12948 1.66229
						CHANNELS 3 Zrotation Yrotation Xrotation
						End Site
						{
							OFFSET 0.00000 -0.00000 0.85167
						}
					}
				}
			}
		}
	}
	JOINT RHipJoint
	{
		OFFSET 0 0 0
		CHANNELS 3 Zrotation Yrotation Xrotation
		JOINT RightUpLeg
		{
			OFFSET -3.13988 -1.57224 1.49786
			CHANNELS 3 Zrotation Yrotation Xrotation
			JOINT RightLeg
			{
				OFFSET -2.15006 -5.90725 0.00000
				CHANNELS 3 Zrotation Yrotation Xrotation
				JOINT RightFoot
				{
					OFFSET -2.34496 -6.44273 0.00000
					CHANNELS 3 Zrotation Yrotation Xrotation
					JOINT RightToeBase
					{
						OFFSET -0.08699 -0.23900 1.55223
						CHANNELS 3 Zrotation Yrotation Xrotation
						End Site
						{
							OFFSET -0.00000 -0.00000 0.80281
						}
					}
				}
			}
		}
	}
	JOINT LowerBack
	{
		OFFSET 0 0 0
		CHANNELS 3 Zrotation Yrotation Xrotation
		JOINT Spine
		{
			OFFSET 0.01292 1.96517 -0.16495
			CHANNELS 3 Zrotation Yrotation Xrotation
			JOINT Spine1
			{
				OFFSET 0.02122 1.88666 0.19706
				CHANNELS 3 Zrotation Yrotation Xrotation
				JOINT Neck
				{
					OFFSET 0 0 0
					CHANNELS 3 Zrotation Yrotation Xrotation
					JOINT Neck1
					{
						OFFSET -0.01683 1.81591 0.07903
						CHANNELS 3 Zrotation Yrotation Xrotation
						JOINT Head
						{
							OFFSET 0.00815 1.74013 -0.47700
							CHANNELS 3 Zrotation Yrotation Xrotation
							End Site
							{
								OFFSET -0.00204 1.83225 -0.16933
							}
						}
					}
				}
				JOINT LeftShoulder
				{
					OFFSET 0 0 0
					CHANNELS 3 Zrotation Yrotation Xrotation
					JOINT LeftArm
					{
						OFFSET 3.38482 1.41533 0.19802
						CHANNELS 3 Zrotation Yrotation Xrotation
						JOINT LeftForeArm
						{
							OFFSET 4.32712 -0.00000 0.00000
							CHANNELS 3 Zrotation Yrotation Xrotation
							JOINT LeftHand
							{
								OFFSET 3.28587 -0.00000 -0.00000
								CHANNELS 3 Zrotation Yrotation Xrotation
								JOINT LeftFingerBase
								{
									OFFSET 0 0 0
									CHANNELS 3 Zrotation Yrotation Xrotation
									JOINT LeftHandIndex1
									{
										OFFSET 0.43316 -0.00000 -0.00000
										CHANNELS 3 Zrotation Yrotation Xrotation
										End Site
										{
											OFFSET 0.34922 -0.00000 -0.00000
										}
									}
								}
								JOINT LThumb
								{
									OFFSET 0 0 0
									CHANNELS 3 Zrotation Yrotation Xrotation
									End Site
									{
										OFFSET 0.35456 -0.00000 0.35456
									}
								}
							}
						}
					}
				}
				JOINT RightShoulder
				{
					OFFSET 0 0 0
					CHANNELS 3 Zrotation Yrotation Xrotation
					JOINT RightArm
					{
						OFFSET -3.09725 1.62858 -0.14144
						CHANNELS 3 Zrotation Yrotation Xrotation
						JOINT RightForeArm
						{
							OFFSET -4.29104 -0.00000 0.00000
							CHANNELS 3 Zrotation Yrotation Xrotation
							JOINT RightHand
							{
								OFFSET -3.22720 -0.00000 -0.00000
								CHANNELS 3 Zrotation Yrotation Xrotation
								JOINT RightFingerBase
								{
									OFFSET 0 0 0
									CHANNELS 3 Zrotation Yrotation Xrotation
									JOINT RightHandIndex1
									{
										OFFSET -0.54362 -0.00000 -0.00000
										CHANNELS 3 Zrotation Yrotation Xrotation
										End Site
										{
											OFFSET -0.43828 -0.00000 -0.00000
										}
									}
								}
								JOINT RThumb
								{
									OFFSET 0 0 0
									CHANNELS 3 Zrotation Yrotation Xrotation
									End Site
									{
										OFFSET -0.44497 -0.00000 0.44497
									}
								}
							}
						}
					}
				}
			}
		}
	}
}
MOTION
Frames: 5
Frame Time: .0083333
-40.1104 15.783 -1.7981 0 0 0 0 0 0 -21 0 0 0 0 0 0 0 0 0 0 0 0 0 0 21 0 0 0 0 0 0 0 0 0 0 0 0 0 0 0 0 0 0 0 0 0 0 -16 0 0 21 0 0 11 0 0 0 -8 0 0 0 0 0 0 0 0 0 0 0 0 0 0 0 0 0 0 0 0 8 0 0 0 0 0 0 0 0 0 0 0 0 0 0 0 0 0
-40.1104 15.7830 -1.7981 -98.1663 86.9912 -88.2595 0.0000 0.0000 0.0000 -35.7759 -29.0126 14.0277 0.0418 -1.3203 -3.6305 1.7239 15.7059 -34.6474 9.9315 -17.3711 -59.2591 0.0000 0.0000 0.0000 23.7648 16.1823 -10.2172 -0.8193 -5.7756 16.1347 -1.9562 -1.9958 -27.2145 -0.0240 0.9995 -2.7474 1.9952 1.6290 6.9756 1.0835 2.9939 -10.2570 -0.5386 1.3973 -15.2586 -1.4987 -4.1278 -19.7765 0.4274 -5.0420 32.6632 -0.4111 -2.0050 14.6485 0.0000 0.0000 0.0000 -84.1888 19.5121 19.9642 17.5998 -27.6417 -4.3620 -0.0000 -0.0000 6.7679 28.2926 31.3271 15.6350 -7.1250 0.0000 -0.0000 -4.2699 64.5852 -2.0260 0.0000 0.0000 0.0000 71.9308 -17.5937 44.9395 -18.6971 29.0406 -4.8829 0.0000 -0.0000 -10.3125 -23.4385 -18.6478 7.8922 7.1250 -0.0000 -0.0000 4.7127 -50.1155 -0.5954
-40.0844 15.7796 -1.8107 -99.3891 87.1055 -89.4891 0.0000 0.0000 0.0000 -35.8122 -28.4492 13.7958 0.0427 -1.3330 -3.6655 1.4933 16.0546 -33.6437 10.3687 -17.6120 -60.7137 0.0000 0.0000 0.0000 23.5998 16.1288 -10.1549 -0.8286 -5.8074 16.2267 -1.9551 -2.1403 -27.2660 -0.0329 1.1708 -3.2189 1.8301 1.6594 6.8835 1.0939 2.9980 -10.1333 -0.4291 1.4191 -15.0553 -1.5389 -4.1780 -20.0490 0.4367 -5.1110 32.6768 -0.4202 -2.0386 14.7184 0.0000 0.0000 0.0000 -84.1781 19.3244 20.1725 17.6310 -27.6821 -4.3765 -0.0000 -0.0000 6.5390 28.2455 31.2208 15.5604 -7.1250 0.0000 -0.0000 -4.2667 64.4613 -2.0121 0.0000 0.0000 0.0000 71.9138 -17.3730 44.8304 -18.5811 28.8948 -4.8268 0.0000 -0.0000 -10.3569 -23.5103 -18.9243 8.0307 7.1250 -0.0000 -0.0000 4.7120 -50.4210 -0.6308
-40.0562 15.7753 -1.8215 -101.7860 87.1314 -91.8892 0.0000 0.0000 0.0000 -35.7325 -27.8694 13.5271 0.0426 -1.3314 -3.6612 1.3941 15.8913 -32.9114 10.7196 -17.7951 -61.8677 0.0000 0.0000 0.0000 23.5281 16.1296 -10.0782 -0.8436 -5.8584 16.3742 -1.9700 -2.2618 -27.4154 -0.0475 1.4062 -3.8671 1.7397 1.6505 6.7536 1.1129 2.9702 -10.1058 -0.3468 1.4198 -14.9436 -1.5726 -4.1812 -19.9255 0.4751 -5.1124 32.6796 -0.3957 -2.0367 14.6947 -0.0000 0.0000 0.0000 -84.2882 19.2996 19.7969 17.6334 -27.6851 -4.3776 -0.0000 -0.0000 6.7986 28.1927 31.0014 15.4342 -7.1250 0.0000 -0.0000 -4.2053 64.2180 -1.9593 -0.0000 0.0000 0.0000 71.9178 -17.5051 44.7707 -18.5212 28.8194 -4.7978 0.0000 -0.0000 -10.3927 -23.7387 -19.3246 8.2801 7.1250 -0.0000 -0.0000 4.5890 -50.8849 -0.6666
-40.0294 15.7703 -1.8342 -103.2550 86.9413 -93.3125 0.0000 0.0000 0.0000 -35.5394 -27.6595 13.4314 0.0418 -1.3190 -3.6268 1.4434 15.4429 -32.7970 10.8132 -17.8425 -62.1736 0.0000 0.0000 0.0000 23.6612 16.0141 -10.1926 -0.8668 -5.9366 16.6006 -2.0009 -2.0685 -27.5438 -0.0485 1.4218 -3.9102 1.7743 1.6467 6.6319 1.2021 2.9982 -10.2643 -0.2720 1.4407 -15.0633 -1.5317 -4.1876 -19.2027 0.4928 -5.1223 32.6958 -0.3781 -2.0280 14.5392 0.0000 0.0000 0.0000 -84.5668 19.5537 18.8308 17.6152 -27.6616 -4.3691 -0.0000 -0.0000 7.6851 28.4058 31.0763 15.5979 -7.1250 0.0000 -0.0000 -3.9800 64.3555 -1.8669 0.0000 0.0000 0.0000 71.8809 -18.0405 44.8438 -18.4574 28.7389 -4.7671 0.0000 -0.0000 -10.3092 -23.8010 -19.1405 8.2291 7.1250 -0.0000 -0.0000 4.4796 -50.6998 -0.6303
